<mxfile host="app.diagrams.net" modified="2021-05-03T08:46:54.511Z" agent="5.0 (Macintosh)" etag="gZyW7XhIi3A74GpstEVu" version="14.6.6" type="github">
  <diagram id="DMX7ZR0cUQAZhBzKIlZs" name="Main Structure">
    <mxGraphModel dx="1426" dy="723" grid="1" gridSize="10" guides="1" tooltips="1" connect="1" arrows="1" fold="1" page="1" pageScale="1" pageWidth="827" pageHeight="1169" math="0" shadow="0">
      <root>
        <mxCell id="0" />
        <mxCell id="1" parent="0" />
        <mxCell id="1JxM3_afwxFaQtv4awE2-10" style="edgeStyle=orthogonalEdgeStyle;rounded=0;orthogonalLoop=1;jettySize=auto;html=1;fontSize=17;" edge="1" parent="1" source="1JxM3_afwxFaQtv4awE2-1" target="1JxM3_afwxFaQtv4awE2-8">
          <mxGeometry relative="1" as="geometry" />
        </mxCell>
        <mxCell id="1JxM3_afwxFaQtv4awE2-11" style="edgeStyle=orthogonalEdgeStyle;rounded=0;orthogonalLoop=1;jettySize=auto;html=1;fontSize=17;" edge="1" parent="1" source="1JxM3_afwxFaQtv4awE2-1" target="1JxM3_afwxFaQtv4awE2-9">
          <mxGeometry relative="1" as="geometry">
            <Array as="points">
              <mxPoint x="145" y="465" />
              <mxPoint x="580" y="465" />
            </Array>
          </mxGeometry>
        </mxCell>
        <mxCell id="1JxM3_afwxFaQtv4awE2-1" value="&lt;div style=&quot;font-size: 17px&quot;&gt;arrivals&lt;br style=&quot;font-size: 17px&quot;&gt;&lt;/div&gt;" style="rounded=0;whiteSpace=wrap;html=1;fontSize=17;fillColor=#d5e8d4;strokeColor=#82b366;" vertex="1" parent="1">
          <mxGeometry x="90" y="345" width="110" height="60" as="geometry" />
        </mxCell>
        <mxCell id="1JxM3_afwxFaQtv4awE2-2" value="Tables" style="text;html=1;strokeColor=none;fillColor=none;align=center;verticalAlign=middle;whiteSpace=wrap;rounded=0;fontSize=30;fontStyle=1" vertex="1" parent="1">
          <mxGeometry x="360" y="120" width="136" height="40" as="geometry" />
        </mxCell>
        <mxCell id="1JxM3_afwxFaQtv4awE2-12" style="edgeStyle=orthogonalEdgeStyle;rounded=0;orthogonalLoop=1;jettySize=auto;html=1;entryX=0.5;entryY=0;entryDx=0;entryDy=0;fontSize=17;" edge="1" parent="1" source="1JxM3_afwxFaQtv4awE2-3" target="1JxM3_afwxFaQtv4awE2-8">
          <mxGeometry relative="1" as="geometry" />
        </mxCell>
        <mxCell id="1JxM3_afwxFaQtv4awE2-3" value="departures" style="rounded=0;whiteSpace=wrap;html=1;fontSize=17;fillColor=#d5e8d4;strokeColor=#82b366;" vertex="1" parent="1">
          <mxGeometry x="274" y="345" width="106" height="60" as="geometry" />
        </mxCell>
        <mxCell id="1JxM3_afwxFaQtv4awE2-14" style="edgeStyle=orthogonalEdgeStyle;rounded=0;orthogonalLoop=1;jettySize=auto;html=1;entryX=0.5;entryY=0;entryDx=0;entryDy=0;fontSize=17;" edge="1" parent="1" source="1JxM3_afwxFaQtv4awE2-4" target="1JxM3_afwxFaQtv4awE2-8">
          <mxGeometry relative="1" as="geometry">
            <Array as="points">
              <mxPoint x="500" y="465" />
              <mxPoint x="220" y="465" />
            </Array>
          </mxGeometry>
        </mxCell>
        <mxCell id="1JxM3_afwxFaQtv4awE2-4" value="bunkerings" style="rounded=0;whiteSpace=wrap;html=1;fontSize=17;fillColor=#d5e8d4;strokeColor=#82b366;" vertex="1" parent="1">
          <mxGeometry x="450" y="345" width="100" height="60" as="geometry" />
        </mxCell>
        <mxCell id="1JxM3_afwxFaQtv4awE2-13" style="edgeStyle=orthogonalEdgeStyle;rounded=0;orthogonalLoop=1;jettySize=auto;html=1;entryX=0.5;entryY=0;entryDx=0;entryDy=0;fontSize=17;" edge="1" parent="1" source="1JxM3_afwxFaQtv4awE2-6" target="1JxM3_afwxFaQtv4awE2-9">
          <mxGeometry relative="1" as="geometry" />
        </mxCell>
        <mxCell id="1JxM3_afwxFaQtv4awE2-6" value="anchorings" style="rounded=0;whiteSpace=wrap;html=1;fontSize=17;fillColor=#d5e8d4;strokeColor=#82b366;" vertex="1" parent="1">
          <mxGeometry x="610" y="345" width="110" height="60" as="geometry" />
        </mxCell>
        <mxCell id="1JxM3_afwxFaQtv4awE2-8" value="bunkers" style="rounded=0;whiteSpace=wrap;html=1;fontSize=17;fillColor=#fff2cc;strokeColor=#d6b656;" vertex="1" parent="1">
          <mxGeometry x="160" y="525" width="120" height="60" as="geometry" />
        </mxCell>
        <mxCell id="1JxM3_afwxFaQtv4awE2-9" value="attachments" style="rounded=0;whiteSpace=wrap;html=1;fontSize=17;fillColor=#fff2cc;strokeColor=#d6b656;" vertex="1" parent="1">
          <mxGeometry x="520" y="525" width="120" height="60" as="geometry" />
        </mxCell>
        <mxCell id="1JxM3_afwxFaQtv4awE2-16" style="edgeStyle=orthogonalEdgeStyle;rounded=0;orthogonalLoop=1;jettySize=auto;html=1;fontSize=17;" edge="1" parent="1" source="1JxM3_afwxFaQtv4awE2-15" target="1JxM3_afwxFaQtv4awE2-1">
          <mxGeometry relative="1" as="geometry">
            <Array as="points">
              <mxPoint x="415" y="310" />
              <mxPoint x="145" y="310" />
            </Array>
          </mxGeometry>
        </mxCell>
        <mxCell id="1JxM3_afwxFaQtv4awE2-17" style="edgeStyle=orthogonalEdgeStyle;rounded=0;orthogonalLoop=1;jettySize=auto;html=1;entryX=0.5;entryY=0;entryDx=0;entryDy=0;fontSize=17;" edge="1" parent="1" source="1JxM3_afwxFaQtv4awE2-15" target="1JxM3_afwxFaQtv4awE2-3">
          <mxGeometry relative="1" as="geometry">
            <Array as="points">
              <mxPoint x="415" y="310" />
              <mxPoint x="327" y="310" />
            </Array>
          </mxGeometry>
        </mxCell>
        <mxCell id="1JxM3_afwxFaQtv4awE2-18" style="edgeStyle=orthogonalEdgeStyle;rounded=0;orthogonalLoop=1;jettySize=auto;html=1;entryX=0.5;entryY=0;entryDx=0;entryDy=0;fontSize=17;" edge="1" parent="1" source="1JxM3_afwxFaQtv4awE2-15" target="1JxM3_afwxFaQtv4awE2-4">
          <mxGeometry relative="1" as="geometry">
            <Array as="points">
              <mxPoint x="415" y="310" />
              <mxPoint x="500" y="310" />
            </Array>
          </mxGeometry>
        </mxCell>
        <mxCell id="1JxM3_afwxFaQtv4awE2-19" style="edgeStyle=orthogonalEdgeStyle;rounded=0;orthogonalLoop=1;jettySize=auto;html=1;fontSize=17;" edge="1" parent="1" source="1JxM3_afwxFaQtv4awE2-15" target="1JxM3_afwxFaQtv4awE2-6">
          <mxGeometry relative="1" as="geometry">
            <Array as="points">
              <mxPoint x="415" y="310" />
              <mxPoint x="665" y="310" />
            </Array>
          </mxGeometry>
        </mxCell>
        <mxCell id="1JxM3_afwxFaQtv4awE2-15" value="ships" style="rounded=0;whiteSpace=wrap;html=1;fontSize=17;fillColor=#d5e8d4;strokeColor=#82b366;" vertex="1" parent="1">
          <mxGeometry x="360" y="210" width="110" height="60" as="geometry" />
        </mxCell>
        <mxCell id="1JxM3_afwxFaQtv4awE2-21" style="edgeStyle=orthogonalEdgeStyle;rounded=0;orthogonalLoop=1;jettySize=auto;html=1;fontSize=17;" edge="1" parent="1" source="1JxM3_afwxFaQtv4awE2-20" target="1JxM3_afwxFaQtv4awE2-15">
          <mxGeometry relative="1" as="geometry" />
        </mxCell>
        <mxCell id="1JxM3_afwxFaQtv4awE2-20" value="companies" style="rounded=0;whiteSpace=wrap;html=1;fontSize=17;fillColor=#d5e8d4;strokeColor=#82b366;" vertex="1" parent="1">
          <mxGeometry x="110" y="210" width="110" height="60" as="geometry" />
        </mxCell>
      </root>
    </mxGraphModel>
  </diagram>
</mxfile>
